<svg width="32" height="32" viewBox="0 0 32 32" fill="none" xmlns="http://www.w3.org/2000/svg">
<path d="M1.41336 30.188H7.57417C7.90033 30.188 8.19025 30.0068 8.37145 29.7531L25.3318 1.8845C25.5493 1.5221 25.2956 1.08722 24.8607 1.08722H19.026C18.7361 1.08722 18.4824 1.23218 18.3375 1.48586L1.12344 29.6807C1.01472 29.8981 1.15968 30.188 1.41336 30.188Z" fill="#BEC9C5"/>
<path d="M22.65 29.7531L30.6591 16.8879C30.9128 16.4892 30.6228 15.9819 30.1517 15.9819H24.3533C24.1359 15.9819 23.9184 16.0906 23.8097 16.2718L15.5832 29.4269C15.3658 29.7531 15.6194 30.188 16.0181 30.188H21.9252C22.2151 30.188 22.5051 30.043 22.65 29.7531Z" fill="#BEC9C5"/>
</svg>
